<svg width="1024" height="1024" viewBox="0 0 1024 1024" fill="none" xmlns="http://www.w3.org/2000/svg">
<g clip-path="url(#clip0)">
<rect width="1024" height="1024" rx="100" fill="#141434"/>
<circle cx="512" cy="512" r="400" stroke="#919199" stroke-opacity="0.25" stroke-width="24"/>
<path d="M512 112C582.215 112 651.192 130.483 712 165.59C772.808 200.697 823.303 251.192 858.41 312C893.518 372.808 912 441.785 912 512C912 582.215 893.517 651.192 858.41 712C823.303 772.808 772.808 823.303 712 858.41C651.192 893.518 582.215 912 512 912C441.785 912 372.808 893.517 312 858.41C251.192 823.303 200.697 772.808 165.59 712" stroke="#EB5A46" stroke-width="40" stroke-linecap="round"/>
<path d="M354.359 512H279.828V501.609L317.094 460.203C320.427 456.505 323.214 453.224 325.453 450.359C327.693 447.495 329.49 444.865 330.844 442.469C332.198 440.021 333.161 437.729 333.734 435.594C334.307 433.406 334.594 431.167 334.594 428.875C334.594 426.062 334.125 423.432 333.188 420.984C332.302 418.484 330.974 416.323 329.203 414.5C327.484 412.677 325.375 411.245 322.875 410.203C320.427 409.109 317.641 408.562 314.516 408.562C310.714 408.562 307.406 409.109 304.594 410.203C301.833 411.297 299.516 412.859 297.641 414.891C295.818 416.87 294.438 419.292 293.5 422.156C292.615 425.021 292.172 428.224 292.172 431.766H277.641C277.641 426.974 278.474 422.469 280.141 418.25C281.807 413.979 284.203 410.255 287.328 407.078C290.505 403.901 294.359 401.375 298.891 399.5C303.474 397.625 308.682 396.688 314.516 396.688C319.88 396.688 324.698 397.495 328.969 399.109C333.292 400.672 336.938 402.859 339.906 405.672C342.875 408.484 345.141 411.818 346.703 415.672C348.318 419.526 349.125 423.719 349.125 428.25C349.125 431.635 348.552 434.995 347.406 438.328C346.26 441.609 344.698 444.865 342.719 448.094C340.792 451.323 338.526 454.526 335.922 457.703C333.37 460.828 330.661 463.953 327.797 467.078L297.25 500.203H354.359V512ZM385.844 454.969L391.547 398.25H449.906V412.312H403.734L400.531 442.625C402.771 441.323 405.453 440.177 408.578 439.188C411.703 438.198 415.323 437.703 419.438 437.703C424.698 437.703 429.411 438.615 433.578 440.438C437.745 442.26 441.286 444.839 444.203 448.172C447.12 451.453 449.359 455.438 450.922 460.125C452.484 464.812 453.266 470.021 453.266 475.75C453.266 481.167 452.536 486.193 451.078 490.828C449.62 495.464 447.406 499.474 444.438 502.859C441.521 506.193 437.823 508.823 433.344 510.75C428.865 512.625 423.604 513.562 417.562 513.562C412.927 513.562 408.552 512.911 404.438 511.609C400.323 510.307 396.651 508.354 393.422 505.75C390.245 503.146 387.615 499.865 385.531 495.906C383.5 491.948 382.224 487.339 381.703 482.078H395.453C396.339 488.536 398.708 493.432 402.562 496.766C406.469 500.099 411.469 501.766 417.562 501.766C421 501.766 424.047 501.167 426.703 499.969C429.359 498.719 431.573 496.974 433.344 494.734C435.167 492.443 436.521 489.708 437.406 486.531C438.344 483.354 438.812 479.812 438.812 475.906C438.812 472.365 438.292 469.057 437.25 465.984C436.26 462.911 434.802 460.255 432.875 458.016C430.948 455.724 428.578 453.927 425.766 452.625C422.953 451.323 419.724 450.672 416.078 450.672C413.682 450.672 411.599 450.854 409.828 451.219C408.109 451.531 406.547 452 405.141 452.625C403.734 453.25 402.406 454.005 401.156 454.891C399.958 455.776 398.708 456.792 397.406 457.938L385.844 454.969ZM505.844 502.625C505.844 501.062 506.078 499.604 506.547 498.25C507.068 496.896 507.797 495.724 508.734 494.734C509.672 493.693 510.844 492.885 512.25 492.312C513.656 491.74 515.297 491.453 517.172 491.453C519.047 491.453 520.688 491.74 522.094 492.312C523.552 492.885 524.75 493.693 525.688 494.734C526.677 495.724 527.406 496.896 527.875 498.25C528.396 499.604 528.656 501.062 528.656 502.625C528.656 504.135 528.396 505.568 527.875 506.922C527.406 508.224 526.677 509.37 525.688 510.359C524.75 511.349 523.552 512.104 522.094 512.625C520.688 513.198 519.047 513.484 517.172 513.484C515.297 513.484 513.656 513.198 512.25 512.625C510.844 512.104 509.672 511.349 508.734 510.359C507.797 509.37 507.068 508.224 506.547 506.922C506.078 505.568 505.844 504.135 505.844 502.625ZM505.844 434.188C505.844 432.625 506.078 431.167 506.547 429.812C507.068 428.458 507.797 427.286 508.734 426.297C509.672 425.255 510.844 424.448 512.25 423.875C513.656 423.302 515.297 423.016 517.172 423.016C519.047 423.016 520.688 423.302 522.094 423.875C523.552 424.448 524.75 425.255 525.688 426.297C526.677 427.286 527.406 428.458 527.875 429.812C528.396 431.167 528.656 432.625 528.656 434.188C528.656 435.698 528.396 437.13 527.875 438.484C527.406 439.786 526.677 440.932 525.688 441.922C524.75 442.911 523.552 443.693 522.094 444.266C520.688 444.786 519.047 445.047 517.172 445.047C515.297 445.047 513.656 444.786 512.25 444.266C510.844 443.693 509.672 442.911 508.734 441.922C507.797 440.932 507.068 439.786 506.547 438.484C506.078 437.13 505.844 435.698 505.844 434.188ZM644.281 468.484C644.281 475.724 643.448 482.156 641.781 487.781C640.115 493.354 637.719 498.068 634.594 501.922C631.469 505.724 627.641 508.615 623.109 510.594C618.578 512.573 613.396 513.562 607.562 513.562C601.781 513.562 596.599 512.573 592.016 510.594C587.484 508.615 583.63 505.724 580.453 501.922C577.276 498.068 574.828 493.354 573.109 487.781C571.443 482.156 570.609 475.724 570.609 468.484V441.844C570.609 434.604 571.443 428.198 573.109 422.625C574.776 417 577.172 412.26 580.297 408.406C583.474 404.552 587.328 401.635 591.859 399.656C596.443 397.625 601.625 396.609 607.406 396.609C613.24 396.609 618.422 397.625 622.953 399.656C627.536 401.635 631.391 404.552 634.516 408.406C637.693 412.26 640.115 417 641.781 422.625C643.448 428.198 644.281 434.604 644.281 441.844V468.484ZM585.141 465.594L629.438 431.609C628.604 424.057 626.391 418.328 622.797 414.422C619.255 410.464 614.125 408.484 607.406 408.484C599.802 408.484 594.177 411.062 590.531 416.219C586.938 421.323 585.141 428.797 585.141 438.641V465.594ZM629.75 445.438L585.531 479.266C586.417 486.609 588.682 492.208 592.328 496.062C595.974 499.917 601.052 501.844 607.562 501.844C615.219 501.844 620.818 499.24 624.359 494.031C627.953 488.823 629.75 481.323 629.75 471.531V445.438ZM740.375 468.484C740.375 475.724 739.542 482.156 737.875 487.781C736.208 493.354 733.812 498.068 730.688 501.922C727.562 505.724 723.734 508.615 719.203 510.594C714.672 512.573 709.49 513.562 703.656 513.562C697.875 513.562 692.693 512.573 688.109 510.594C683.578 508.615 679.724 505.724 676.547 501.922C673.37 498.068 670.922 493.354 669.203 487.781C667.536 482.156 666.703 475.724 666.703 468.484V441.844C666.703 434.604 667.536 428.198 669.203 422.625C670.87 417 673.266 412.26 676.391 408.406C679.568 404.552 683.422 401.635 687.953 399.656C692.536 397.625 697.719 396.609 703.5 396.609C709.333 396.609 714.516 397.625 719.047 399.656C723.63 401.635 727.484 404.552 730.609 408.406C733.786 412.26 736.208 417 737.875 422.625C739.542 428.198 740.375 434.604 740.375 441.844V468.484ZM681.234 465.594L725.531 431.609C724.698 424.057 722.484 418.328 718.891 414.422C715.349 410.464 710.219 408.484 703.5 408.484C695.896 408.484 690.271 411.062 686.625 416.219C683.031 421.323 681.234 428.797 681.234 438.641V465.594ZM725.844 445.438L681.625 479.266C682.51 486.609 684.776 492.208 688.422 496.062C692.068 499.917 697.146 501.844 703.656 501.844C711.312 501.844 716.911 499.24 720.453 494.031C724.047 488.823 725.844 481.323 725.844 471.531V445.438Z" fill="#F6F6FC"/>
<path d="M344.102 636.734V659H336.602V602.125H357.578C363.802 602.125 368.672 603.714 372.188 606.891C375.729 610.068 377.5 614.273 377.5 619.508C377.5 625.029 375.768 629.286 372.305 632.281C368.867 635.25 363.932 636.734 357.5 636.734H344.102ZM344.102 630.602H357.578C361.589 630.602 364.661 629.664 366.797 627.789C368.932 625.888 370 623.154 370 619.586C370 616.201 368.932 613.492 366.797 611.461C364.661 609.43 361.732 608.375 358.008 608.297H344.102V630.602ZM430.82 632.398C430.82 637.971 429.883 642.841 428.008 647.008C426.133 651.148 423.477 654.312 420.039 656.5C416.602 658.688 412.591 659.781 408.008 659.781C403.529 659.781 399.557 658.688 396.094 656.5C392.63 654.286 389.935 651.148 388.008 647.086C386.107 642.997 385.13 638.271 385.078 632.906V628.805C385.078 623.336 386.029 618.505 387.93 614.312C389.831 610.12 392.513 606.917 395.977 604.703C399.466 602.464 403.451 601.344 407.93 601.344C412.487 601.344 416.497 602.451 419.961 604.664C423.451 606.852 426.133 610.042 428.008 614.234C429.883 618.401 430.82 623.258 430.82 628.805V632.398ZM423.359 628.727C423.359 621.982 422.005 616.812 419.297 613.219C416.589 609.599 412.799 607.789 407.93 607.789C403.19 607.789 399.453 609.599 396.719 613.219C394.01 616.812 392.617 621.812 392.539 628.219V632.398C392.539 638.935 393.906 644.078 396.641 647.828C399.401 651.552 403.19 653.414 408.008 653.414C412.852 653.414 416.602 651.656 419.258 648.141C421.914 644.599 423.281 639.534 423.359 632.945V628.727ZM451.758 602.125L470.352 648.531L488.945 602.125H498.672V659H491.172V636.852L491.875 612.945L473.203 659H467.461L448.828 613.062L449.57 636.852V659H442.07V602.125H451.758ZM528.672 633.648C522.24 631.799 517.552 629.534 514.609 626.852C511.693 624.143 510.234 620.81 510.234 616.852C510.234 612.372 512.018 608.674 515.586 605.758C519.18 602.815 523.841 601.344 529.57 601.344C533.477 601.344 536.953 602.099 540 603.609C543.073 605.12 545.443 607.203 547.109 609.859C548.802 612.516 549.648 615.419 549.648 618.57H542.109C542.109 615.133 541.016 612.438 538.828 610.484C536.641 608.505 533.555 607.516 529.57 607.516C525.872 607.516 522.982 608.336 520.898 609.977C518.841 611.591 517.812 613.844 517.812 616.734C517.812 619.052 518.789 621.018 520.742 622.633C522.721 624.221 526.068 625.68 530.781 627.008C535.521 628.336 539.219 629.807 541.875 631.422C544.557 633.01 546.536 634.872 547.812 637.008C549.115 639.143 549.766 641.656 549.766 644.547C549.766 649.156 547.969 652.854 544.375 655.641C540.781 658.401 535.977 659.781 529.961 659.781C526.055 659.781 522.409 659.039 519.023 657.555C515.638 656.044 513.021 653.987 511.172 651.383C509.349 648.779 508.438 645.823 508.438 642.516H515.977C515.977 645.953 517.24 648.674 519.766 650.68C522.318 652.659 525.716 653.648 529.961 653.648C533.919 653.648 536.953 652.841 539.062 651.227C541.172 649.612 542.227 647.411 542.227 644.625C542.227 641.839 541.25 639.69 539.297 638.18C537.344 636.643 533.802 635.133 528.672 633.648ZM598.711 608.297H580.43V659H572.969V608.297H554.727V602.125H598.711V608.297ZM635.43 644.156H611.602L606.25 659H598.516L620.234 602.125H626.797L648.555 659H640.859L635.43 644.156ZM613.867 637.984H633.203L623.516 611.383L613.867 637.984ZM690.43 608.297H672.148V659H664.688V608.297H646.445V602.125H690.43V608.297Z" fill="#F6F6FC"/>
</g>
<defs>
<clipPath id="clip0">
<path d="M0 0H1024V1024H0V0Z" fill="white"/>
</clipPath>
</defs>
</svg>
